<svg width="564" height="552" viewBox="0 0 564 552" fill="none" xmlns="http://www.w3.org/2000/svg">
<path d="M65.4951 137.698C125.807 32.6263 159.03 -25.2531 283.803 10.6729C302.57 16.0768 319.331 20.5233 334.119 24.4473C420.977 47.4913 450.238 55.2555 507.187 153.896C542.785 215.552 560.214 251.249 562.976 287.345C565.78 324.014 553.789 360.224 518.73 420.947C483.671 481.671 458.307 510.161 425.148 526.065C398.156 539.013 366.387 543.133 315.941 544.173C299.668 548.707 285.106 551.636 271.639 551.636C267.799 551.636 264.05 551.397 260.375 550.892C260.275 550.892 260.174 550.895 260.074 550.895C253.805 550.895 247.951 550.406 242.346 549.377C235.574 549.049 229.278 548.256 223.281 546.943C215.945 546.263 209.153 545.142 202.716 543.518C194.764 542.451 187.432 540.973 180.518 539.004C164.439 536.222 150.81 532.104 138.22 526.065C105.061 510.161 79.6977 481.671 44.6377 420.947C9.57879 360.223 -2.41334 324.014 0.392579 287.345C3.15458 251.248 20.5817 215.553 56.1797 153.896C59.3647 148.381 62.4641 142.979 65.4951 137.698ZM209.224 19.1328C178.053 19.1328 157.815 31.0462 144.667 56.6152C130.022 85.0943 124.162 129.642 116.744 186.042C115.989 191.781 115.217 197.651 114.416 203.65C103.235 287.47 103.602 315.589 108.509 343.68C114.755 379.441 130.236 411.881 165.629 463.371C196.328 508.031 217.727 531.258 238.65 541.957C251.608 542.34 265.862 542.478 281.685 542.478C284.075 542.478 286.43 542.472 288.75 542.466C291.07 542.352 293.428 542.234 295.825 542.108C297.986 541.995 300.114 541.88 302.212 541.764C304.369 541.535 306.561 541.3 308.79 541.056C310.786 540.837 312.752 540.617 314.688 540.398C316.64 540.07 318.622 539.733 320.638 539.385C322.471 539.068 324.277 538.751 326.056 538.438C327.817 538.018 329.607 537.59 331.426 537.148C333.076 536.748 334.702 536.35 336.304 535.955C337.913 535.448 339.549 534.928 341.211 534.396C386.003 520.039 410.306 509.427 427.271 487.936C444.309 466.352 454.314 432.708 462.954 367.942C471.713 302.283 471.339 264.993 461.574 230.353C451.952 196.216 433.124 165.281 397.121 112.904C339.774 29.4763 319.721 27.8988 260.194 23.2168C249.954 22.4108 238.348 21.4985 225.25 20.0635C219.611 19.4445 214.272 19.1328 209.224 19.1328ZM234.801 17.458C191.079 10.9082 163.422 20.8697 145.128 49.7705C127.616 77.4365 118.722 121.612 107.462 177.539C106.316 183.232 105.144 189.055 103.934 195.005C87.0306 278.114 85.8286 306.207 89.5566 334.508C94.3006 370.537 109.257 403.737 144.743 457.005C177.434 506.076 200.121 530.464 223.67 541.371C227.051 541.541 230.527 541.686 234.104 541.812C213.964 530.301 193.526 507.486 163.981 464.504C128.865 413.415 112.759 379.636 106.538 344.024C100.336 308.51 103.498 270.378 112.435 203.385C113.235 197.388 114.007 191.519 114.762 185.781C129.798 71.4682 138.077 8.4992 225.469 18.0752C238.537 19.5082 250.126 20.4187 260.351 21.2227C262.552 21.3958 264.7 21.5654 266.799 21.7344C257.187 20.5614 246.541 19.2183 234.801 17.458ZM378.569 38.9473C417.472 53.3368 442.835 76.7229 482.755 143.227C518.682 203.079 536.56 237.881 540.985 273.782C545.48 310.249 536.359 346.978 507.332 409.296C478.299 471.63 456.483 501.307 426.837 518.794C403.888 532.331 376.56 538.106 334.135 541.624C373.984 539.966 400.987 535.437 424.283 524.263C457.035 508.553 482.163 480.28 516.997 419.947C551.831 359.614 563.752 323.717 560.98 287.498C558.248 251.786 540.898 216.285 505.455 154.896C460.059 76.2644 432.377 55.8069 378.569 38.9473ZM212.819 12.0098C183.365 12.0098 162.141 22.0369 146.018 42.9619C125.438 69.6709 113.272 113.318 97.8691 168.576C96.3012 174.199 94.6979 179.951 93.0469 185.828C74.6629 251.243 66.4509 288.657 69.5059 324.362C72.6049 360.577 86.9499 394.508 122.434 449.552C157.436 503.851 181.609 529.3 208.646 540.322C208.734 540.358 208.824 540.392 208.912 540.428C212.041 540.676 215.257 540.896 218.565 541.092C196.037 529.195 174.465 505.227 143.079 458.115C107.862 405.25 92.3002 370.668 87.5732 334.77C82.8583 298.968 88.4607 261.046 101.974 194.606C103.184 188.658 104.355 182.835 105.501 177.144C128.322 63.7987 140.891 1.35748 235.099 15.4805C249.202 17.5944 261.732 19.1122 272.786 20.4502C275.212 20.7439 277.578 21.0316 279.889 21.3154C269.501 19.6376 257.996 17.7344 245.319 15.3564C233.486 13.1365 222.688 12.0098 212.819 12.0098ZM256.864 13.8096C206.126 2.49357 172.358 9.40306 147.375 36.2061C123.517 61.8001 107.829 104.745 87.9668 159.117C85.9439 164.652 83.876 170.314 81.748 176.099C58.0761 240.453 47.0344 277.38 48.3193 313.182C49.6223 349.497 63.2618 384.124 98.6426 440.943C133.553 497.005 158.351 523.692 187.088 536.12C189.55 537.185 192.048 538.149 194.594 539.022C197.24 539.338 199.952 539.628 202.734 539.892C177.086 527.622 154.234 502.573 120.753 450.636C85.5301 395.996 70.6027 360.64 67.5127 324.531C64.4317 288.521 72.6711 250.939 91.1211 185.287C92.7721 179.412 94.3754 173.661 95.9424 168.039C127.155 56.0643 144.346 -5.61807 245.688 13.3906C260.881 16.2406 274.398 18.4121 286.322 20.3281C289.023 20.762 291.655 21.1865 294.223 21.6035C282.997 19.3758 270.56 16.8631 256.864 13.8096ZM358.809 34.7002C395.171 47.2165 419.683 69.401 459.75 133.747C495.888 191.782 514.132 225.671 520.076 261.3C526.111 297.485 519.655 334.591 496.252 398.209C472.84 461.855 454.346 492.542 428.016 511.44C407.598 526.094 382.745 533.181 343.853 538.743C380.417 535.172 405.002 529.352 425.82 517.071C455.076 499.814 476.677 470.374 505.52 408.453C534.369 346.513 543.444 310.079 538.999 274.027C534.618 238.484 516.82 203.862 481.04 144.256C435.34 68.1214 408.863 48.9307 358.809 34.7002ZM216.819 5.27051C189.297 5.27051 167.549 13.2476 149.231 29.5293C121.874 53.8433 102.403 95.91 77.751 149.168C75.242 154.588 72.676 160.133 70.0381 165.796C40.6851 228.815 26.602 265.107 25.96 300.916C25.3091 337.235 38.1418 372.519 73.3086 431.103C108.466 489.672 133.027 516.692 163.925 530.796C169.38 533.286 175.025 535.355 180.99 537.057C182.677 537.348 184.391 537.624 186.134 537.886C156.678 525.09 132.484 499.075 96.9443 442C61.3584 384.852 47.6373 349.957 46.3203 313.253C45.0233 277.118 56.1061 240.013 79.8711 175.409C81.9981 169.625 84.0659 163.965 86.0879 158.431C126.329 48.2748 148.492 -12.4055 257.3 11.8574C273.633 15.4994 288.182 18.3751 301.018 20.9121C304.008 21.5032 306.92 22.0804 309.759 22.6465C297.658 19.8245 284.246 16.6537 269.489 12.8711C249.804 7.82413 232.386 5.27055 216.819 5.27051ZM340.37 31.3848C374.338 42.1566 398.013 63.1762 438.12 125.392C474.356 181.6 492.889 214.561 500.212 249.846C507.648 285.677 503.657 323.032 485.49 387.676C467.313 452.359 451.926 483.896 428.72 504.039C410.736 519.649 388.298 527.929 352.923 535.352C386.201 530.031 408.418 523.043 426.85 509.815C452.483 491.417 471.415 459.934 494.375 397.518C517.644 334.263 524.075 297.433 518.103 261.629C512.215 226.333 494.048 192.611 458.053 134.805C412.19 61.1535 386.88 43.1823 340.37 31.3848ZM218.788 2.05274C192.385 2.05277 170.656 8.96714 151.631 22.9541C120.546 45.8091 97.0184 86.7995 67.2295 138.695C64.1985 143.976 61.0971 149.379 57.9121 154.896C22.4683 216.285 5.11882 251.785 2.38672 287.498C-0.384278 323.717 11.5362 359.614 46.3701 419.947C81.2041 480.28 106.331 508.553 139.084 524.263C147.434 528.268 156.262 531.417 165.985 533.889C165.016 533.477 164.052 533.052 163.095 532.615C131.784 518.323 106.985 491.089 71.5938 432.132C36.2118 373.19 23.302 337.617 23.9609 300.879C24.6089 264.711 38.7506 228.23 68.2246 164.951C70.8616 159.289 73.4276 153.746 75.9355 148.327C125.865 40.4573 153.368 -18.9634 269.986 10.9326C287.508 15.4246 303.138 19.0587 316.927 22.2637C320.263 23.0393 323.509 23.7957 326.669 24.5361C313.626 21.0668 299.16 17.1762 283.249 12.5947C258.908 5.58676 237.653 2.05274 218.788 2.05274ZM323.281 28.958C354.95 38.1124 377.796 58.0191 417.812 118.088C454.041 172.473 472.792 204.492 481.364 239.366C490.067 274.777 488.357 312.264 475.052 377.681C461.738 443.143 449.251 475.376 428.984 496.61C412.588 513.788 390.351 523.233 362.041 531.298C391.666 524.447 411.392 516.432 427.409 502.529C449.992 482.926 465.736 450.573 483.565 387.135C501.636 322.834 505.617 285.735 498.253 250.253C490.995 215.278 472.536 182.473 436.438 126.476C390.577 55.3334 366.399 38.5097 323.281 28.958ZM307.363 27.3291C336.882 34.9734 358.917 53.7916 398.77 111.771C415.854 136.624 429.398 156.997 439.97 175.64C451.177 195.402 458.652 212.614 463.499 229.81C473.346 264.74 473.736 302.249 464.937 368.205C456.133 434.211 446.348 466.997 428.842 489.175C414.691 507.101 394.788 517.604 369.25 527.014C395.969 518.769 413.601 509.831 427.537 495.229C447.258 474.569 460.03 441.499 473.092 377.283C486.332 312.186 488.048 274.936 479.422 239.844C470.921 205.259 452.245 173.384 416.147 119.196C370.393 50.5125 347.308 34.8055 307.363 27.3291Z" fill="url(#paint0_linear_2_827)"/>
<defs>
<linearGradient id="paint0_linear_2_827" x1="-3.76602" y1="300.204" x2="284.352" y2="577.921" gradientUnits="userSpaceOnUse">
<stop stop-color="#5D5DFF" stop-opacity="0.01"/>
<stop offset="1" stop-color="#5D5DFF" stop-opacity="0.32"/>
</linearGradient>
</defs>
</svg>
